<svg xmlns="http://www.w3.org/2000/svg" version="1.0" width="192" height="192" viewBox="0 0 192 192" preserveAspectRatio="xMidYMid meet"><default:g xmlns:default="http://www.w3.org/2000/svg" transform="translate(0.000000,192.000000) scale(0.100000,-0.100000)" fill="#000000" stroke="none"><default:path d="M80 1385 l0 -405 360 0 360 0 0 78 c0 66 3 82 20 97 19 18 20 17 20 -3 0 -15 6 -22 20 -22 19 0 20 7 20 109 0 94 -3 112 -21 135 -22 27 -59 36 -59 13 0 -8 9 -22 20 -32 27 -24 27 -65 0 -65 -11 0 -20 -7 -20 -15 0 -8 9 -15 20 -15 28 0 28 -55 0 -72 -11 -7 -21 -22 -21 -33 -1 -14 -3 -15 -5 -5 -4 12 -14 15 -38 12 -27 -3 -37 1 -46 17 -6 12 -9 30 -5 40 6 18 44 41 70 41 8 0 15 7 15 16 0 13 -7 15 -37 10 -57 -10 -87 -37 -91 -79 -4 -51 24 -77 84 -77 38 0 45 -3 40 -16 -3 -9 -6 -38 -6 -65 l0 -49 -340 0 -340 0 0 390 0 390 341 -2 341 -3 -2 -177 c0 -113 3 -179 10 -183 7 -4 10 55 10 184 l0 191 -360 0 -360 0 0 -405z"/><default:path d="M220 1473 l0 -183 25 0 c25 0 25 1 25 87 0 91 -15 107 -23 23 -2 -27 -3 -18 -3 23 0 50 4 66 13 63 10 -4 13 12 13 64 l0 69 62 -5 c70 -6 84 -13 91 -50 5 -30 -26 -74 -54 -74 -27 0 -24 -33 3 -45 21 -9 39 -35 54 -80 4 -13 8 -16 11 -7 4 10 8 10 21 0 14 -12 15 -9 9 21 -10 49 -34 81 -60 81 -20 1 -19 2 8 16 42 22 55 42 55 84 0 40 -27 77 -63 84 -12 3 -59 7 -104 8 l-83 3 0 -182z m226 126 c3 -6 -5 -3 -20 6 -14 10 -26 19 -26 22 0 7 39 -17 46 -28z m1 -61 c-3 -8 -6 -5 -6 6 -1 11 2 17 5 13 3 -3 4 -12 1 -19z"/><default:path d="M281 1310 l-1 -180 28 0 27 0 -3 85 -3 85 100 -2 101 -2 0 -83 c0 -82 0 -83 25 -83 l25 0 0 180 0 180 -25 0 c-24 0 -25 -2 -25 -75 l0 -75 -101 0 -101 0 4 75 3 75 -26 0 -27 0 -1 -180z"/><default:path d="M1270 1310 l0 -180 26 0 c26 0 26 0 22 71 l-4 71 64 -71 c53 -58 69 -71 94 -71 30 0 30 0 -36 70 l-67 71 52 59 c28 32 56 61 63 64 6 2 -3 5 -21 5 -26 1 -40 -9 -86 -59 -29 -33 -56 -60 -58 -60 -3 0 -3 47 -1 105 l4 105 -26 0 -26 0 0 -180z"/><default:path d="M733 1399 c-34 -10 -63 -42 -63 -71 0 -29 33 -21 52 12 12 21 25 30 42 30 23 0 24 -3 19 -34 -3 -19 -1 -36 6 -40 13 -8 16 66 4 78 -5 4 -8 13 -8 19 0 15 -15 17 -52 6z"/><default:path d="M1075 1403 c-11 -3 -30 -14 -42 -26 l-23 -20 0 21 c0 16 -6 22 -22 22 -23 0 -23 -2 -23 -135 0 -133 0 -135 23 -135 21 0 22 3 22 98 0 109 8 126 67 138 52 10 63 -12 63 -132 l0 -104 26 0 26 0 -3 115 c-4 98 -7 117 -24 134 -22 22 -59 32 -90 24z"/><default:path d="M1596 1400 c-41 -13 -65 -38 -77 -83 -15 -58 -3 -120 31 -157 24 -26 35 -30 82 -30 63 0 94 18 114 66 50 119 -37 238 -150 204z m93 -56 c32 -40 29 -126 -4 -159 -13 -14 -36 -25 -50 -25 -14 0 -37 11 -50 25 -20 20 -25 34 -25 78 0 70 26 107 75 107 24 0 39 -7 54 -26z"/><default:path d="M787 1253 c-11 -10 -8 -73 3 -73 6 0 10 18 10 40 0 41 -2 45 -13 33z"/></default:g></svg>